{
  "source": "C:\\Users\\Peter\\Desktop\\stuff\\MIUN\\quantitative_research\\video_compression\\videos\\BVI-HD\\BVI-HD_CDVL_videos\\ORIG\\MartialArts_1920x1080_60fps.mp4",
  "output": "C:\\Users\\Peter\\Desktop\\stuff\\MIUN\\quantitative_research\\video_compression\\compressed_videos\\BVI-HD\\vp9\\1\\MartialArts_1920x1080_60fps_vp9.webm",
  "codec": "vp9",
  "ok": "Input #0, mov,mp4,m4a,3gp,3g2,mj2, from 'C:\\Users\\Peter\\Desktop\\stuff\\MIUN\\quantitative_research\\video_compression\\videos\\BVI-HD\\BVI-HD_CDVL_videos\\ORIG\\MartialArts_1920x1080_60fps.mp4':\n  Metadata:\n    major_brand     : isom\n    minor_version   : 512\n    compatible_brands: isomiso2avc1mp41\n    encoder         : Lavf54.28.101\n  Duration: 00:00:05.00, start: 0.000000, bitrate: 120609 kb/s\n  Stream #0:0[0x1](und): Video: h264 (High 4:4:4 Predictive) (avc1 / 0x31637661), yuv420p(progressive), 1920x1080, 120605 kb/s, 60 fps, 60 tbr, 60 tbn (default)\n    Metadata:\n      handler_name    : VideoHandler\n      vendor_id       : [0][0][0][0]\n[out#0/webm @ 000002325b7a8f80] Codec AVOption b:a (set bitrate (in bits/s)) has not been used for any stream. The most likely reason is either wrong type (e.g. a video option with no video streams) or that it is a private option of some decoder which was not actually used for any stream.\nStream mapping:\n  Stream #0:0 -> #0:0 (h264 (native) -> vp9 (libvpx-vp9))\nPress [q] to stop, [?] for help\n[libvpx-vp9 @ 000002325bd805c0] v1.15.2-100-g40561f514\nOutput #0, webm, to 'C:\\Users\\Peter\\Desktop\\stuff\\MIUN\\quantitative_research\\video_compression\\compressed_videos\\BVI-HD\\vp9\\1\\MartialArts_1920x1080_60fps_vp9.webm':\n  Metadata:\n    major_brand     : isom\n    minor_version   : 512\n    compatible_brands: isomiso2avc1mp41\n    encoder         : Lavf62.3.100\n  Stream #0:0(und): Video: vp9, yuv420p(tv, progressive), 1920x1080, q=2-31, 1000 kb/s, 60 fps, 1k tbn (default)\n    Metadata:\n      encoder         : Lavc62.11.100 libvpx-vp9\n      handler_name    : VideoHandler\n      vendor_id       : [0][0][0][0]\n    Side data:\n      cpb: bitrate max/min/avg: 0/0/0 buffer size: 1000000 vbv_delay: N/A\nframe=    5 fps=0.0 q=53.0 size=       1KiB time=00:00:00.08 bitrate=  60.8kbits/s speed=0.159x elapsed=0:00:00.52    \nframe=   13 fps= 12 q=36.0 size=       1KiB time=00:00:00.21 bitrate=  23.4kbits/s speed=0.205x elapsed=0:00:01.05    \nframe=   20 fps= 13 q=38.0 size=       1KiB time=00:00:00.33 bitrate=  15.2kbits/s speed=0.21x elapsed=0:00:01.58    \nframe=   26 fps= 12 q=37.0 size=       1KiB time=00:00:00.43 bitrate=  11.7kbits/s speed=0.206x elapsed=0:00:02.10    \nframe=   34 fps= 13 q=38.0 size=       1KiB time=00:00:00.56 bitrate=   8.9kbits/s speed=0.214x elapsed=0:00:02.64    \nframe=   42 fps= 13 q=43.0 size=       1KiB time=00:00:00.70 bitrate=   7.2kbits/s speed=0.222x elapsed=0:00:03.15    \nframe=   50 fps= 14 q=48.0 size=       1KiB time=00:00:00.83 bitrate=   6.1kbits/s speed=0.226x elapsed=0:00:03.68    \nframe=   59 fps= 14 q=50.0 size=       1KiB time=00:00:00.98 bitrate=   5.1kbits/s speed=0.234x elapsed=0:00:04.20    \nframe=   67 fps= 14 q=49.0 size=       1KiB time=00:00:01.11 bitrate=   4.5kbits/s speed=0.235x elapsed=0:00:04.74    \nframe=   75 fps= 14 q=47.0 size=       1KiB time=00:00:01.25 bitrate=   4.1kbits/s speed=0.237x elapsed=0:00:05.28    \nframe=   84 fps= 14 q=48.0 size=       1KiB time=00:00:01.40 bitrate=   3.6kbits/s speed=0.241x elapsed=0:00:05.80    \nframe=   92 fps= 14 q=46.0 size=       1KiB time=00:00:01.53 bitrate=   3.3kbits/s speed=0.242x elapsed=0:00:06.34    \nframe=  101 fps= 15 q=44.0 size=       1KiB time=00:00:01.68 bitrate=   3.0kbits/s speed=0.246x elapsed=0:00:06.85    \nframe=  109 fps= 15 q=27.0 size=       1KiB time=00:00:01.81 bitrate=   2.8kbits/s speed=0.247x elapsed=0:00:07.36    \nframe=  118 fps= 15 q=46.0 size=       1KiB time=00:00:01.96 bitrate=   2.6kbits/s speed=0.249x elapsed=0:00:07.88    \nframe=  127 fps= 15 q=45.0 size=       1KiB time=00:00:02.11 bitrate=   2.4kbits/s speed=0.252x elapsed=0:00:08.41    \nframe=  137 fps= 15 q=43.0 size=     232KiB time=00:00:02.28 bitrate= 832.5kbits/s speed=0.255x elapsed=0:00:08.94    \nframe=  145 fps= 15 q=45.0 size=     232KiB time=00:00:02.41 bitrate= 786.5kbits/s speed=0.255x elapsed=0:00:09.46    \nframe=  154 fps= 15 q=45.0 size=     232KiB time=00:00:02.56 bitrate= 740.6kbits/s speed=0.257x elapsed=0:00:09.97    \nframe=  162 fps= 15 q=47.0 size=     232KiB time=00:00:02.70 bitrate= 704.0kbits/s speed=0.257x elapsed=0:00:10.50    \nframe=  170 fps= 15 q=51.0 size=     232KiB time=00:00:02.83 bitrate= 670.9kbits/s speed=0.257x elapsed=0:00:11.01    \nframe=  179 fps= 16 q=52.0 size=     232KiB time=00:00:02.98 bitrate= 637.1kbits/s speed=0.259x elapsed=0:00:11.53    \nframe=  187 fps= 16 q=54.0 size=     232KiB time=00:00:03.11 bitrate= 609.9kbits/s speed=0.258x elapsed=0:00:12.05    \nframe=  196 fps= 16 q=51.0 size=     232KiB time=00:00:03.26 bitrate= 581.9kbits/s speed=0.26x elapsed=0:00:12.58    \nframe=  205 fps= 16 q=50.0 size=     232KiB time=00:00:03.41 bitrate= 556.3kbits/s speed=0.261x elapsed=0:00:13.09    \nframe=  214 fps= 16 q=51.0 size=     232KiB time=00:00:03.56 bitrate= 532.9kbits/s speed=0.262x elapsed=0:00:13.62    \nframe=  223 fps= 16 q=50.0 size=     232KiB time=00:00:03.71 bitrate= 511.4kbits/s speed=0.263x elapsed=0:00:14.14    \nframe=  233 fps= 16 q=49.0 size=     232KiB time=00:00:03.88 bitrate= 489.5kbits/s speed=0.265x elapsed=0:00:14.66    \nframe=  242 fps= 16 q=50.0 size=     232KiB time=00:00:04.03 bitrate= 471.3kbits/s speed=0.266x elapsed=0:00:15.18    \nframe=  251 fps= 16 q=51.0 size=     232KiB time=00:00:04.18 bitrate= 454.4kbits/s speed=0.267x elapsed=0:00:15.69    \nframe=  260 fps= 16 q=51.0 size=     256KiB time=00:00:04.33 bitrate= 484.0kbits/s speed=0.267x elapsed=0:00:16.21    \nframe=  269 fps= 16 q=31.0 size=     256KiB time=00:00:04.48 bitrate= 467.8kbits/s speed=0.268x elapsed=0:00:16.73    \nframe=  276 fps= 16 q=51.0 size=     256KiB time=00:00:04.60 bitrate= 455.9kbits/s speed=0.267x elapsed=0:00:17.24    \nframe=  276 fps= 16 q=51.0 size=     256KiB time=00:00:04.60 bitrate= 455.9kbits/s speed=0.259x elapsed=0:00:17.76    \nframe=  276 fps= 15 q=51.0 size=     256KiB time=00:00:04.60 bitrate= 455.9kbits/s speed=0.252x elapsed=0:00:18.27    \n[out#0/webm @ 000002325b7a8f80] video:566KiB audio:0KiB subtitle:0KiB other streams:0KiB global headers:0KiB muxing overhead: 0.487571%\nframe=  300 fps= 16 q=53.0 Lsize=     569KiB time=00:00:05.00 bitrate= 931.9kbits/s speed=0.269x elapsed=0:00:18.57    \n",
  "seconds": 18.782938957214355,
  "probe_out": {}
}